Coordinates
version=1
nRows=9
nColumns=60
inDegrees=yes

Units are S.I. units (second, meters, Newtons, ...)
If the header above contains a line with 'inDegrees', this indicates whether rotational values are in degrees (yes) or radians (no).

endheader
time	pelvis_tilt	pelvis_list	pelvis_rotation	pelvis_tx	pelvis_ty	pelvis_tz	hip_flexion_r	hip_adduction_r	hip_rotation_r	knee_angle_r_beta	knee_angle_r	ankle_angle_r	subtalar_angle_r	mtp_angle_r	hip_flexion_l	hip_adduction_l	hip_rotation_l	knee_angle_l_beta	knee_angle_l	ankle_angle_l	subtalar_angle_l	mtp_angle_l	L5_S1_Flex_Ext	L5_S1_Lat_Bending	L5_S1_axial_rotation	L4_L5_Flex_Ext	L4_L5_Lat_Bending	L4_L5_axial_rotation	L3_L4_Flex_Ext	L3_L4_Lat_Bending	L3_L4_axial_rotation	L2_L3_Flex_Ext	L2_L3_Lat_Bending	L2_L3_axial_rotation	L1_L2_Flex_Ext	L1_L2_Lat_Bending	L1_L2_axial_rotation	L1_T12_Flex_Ext	L1_T12_Lat_Bending	L1_T12_axial_rotation	Abs_r3	Abs_r2	Abs_r1	Abs_t1	Abs_t2	arm_flex_r	arm_add_r	arm_rot_r	elbow_flex_r	pro_sup_r	wrist_flex_r	wrist_dev_r	arm_flex_l	arm_add_l	arm_rot_l	elbow_flex_l	pro_sup_l	wrist_flex_l	wrist_dev_l
      2.44000000	      1.37800692	    -14.83590187	     94.97006844	      0.40298908	      0.82048081	      0.40685426	     54.19701762	     -7.78401344	     -1.19560570	      0.89132469	    -51.06914289	     14.06497963	      0.00000000	      0.00000000	     55.81419626	     -5.61989662	      0.46261175	      0.86285888	    -49.43817223	     12.06079213	      0.00000000	      0.00000000	    -10.94127354	      0.33088473	     -0.07162815	    -20.31903908	      0.44007670	     -0.07610491	    -17.97541829	      0.80451314	     -0.07610491	    -12.50478152	      0.80451314	     -0.06267463	    -10.16006661	      0.67474015	     -0.05819787	     -6.25184370	      0.51254045	     -0.05372111	    -78.15242274	      3.74303428	     -0.39837429	      0.00000000	      0.00000000	     82.42866069	    -17.89019039	     13.11612377	     41.67513414	     71.04301768	     31.68790514	      2.18093540	     91.23322367	    -16.98436885	     36.36260972	     31.81662551	     58.41794981	     34.22796469	     -6.80065483
      2.45000000	      1.37151047	    -14.84561861	     94.99035802	      0.40286233	      0.82014553	      0.40708250	     54.26039727	     -7.79092411	     -1.14379584	      0.89263333	    -51.14412264	     14.08603704	      0.00000000	      0.00000000	     55.88393489	     -5.57320405	      0.51251700	      0.86416514	    -49.51301542	     12.07842213	      0.00000000	      0.00000000	    -10.94544706	      0.32939747	     -0.06850789	    -20.32678974	      0.43809863	     -0.07278964	    -17.98227498	      0.80089700	     -0.07278964	    -12.50955145	      0.80089700	     -0.05994441	    -10.16394214	      0.67170731	     -0.05566266	     -6.25422845	      0.51023667	     -0.05138092	    -78.18223381	      3.72621002	     -0.38102035	      0.00000000	      0.00000000	     82.35481088	    -18.01016665	     13.02748993	     41.75915510	     70.91618176	     31.67504118	      2.21488123	     91.15095842	    -16.96006651	     36.17946468	     31.98277036	     58.32787717	     34.24526513	     -6.78046378
      2.46000000	      1.35313815	    -14.86133299	     95.00754776	      0.40272633	      0.81979340	      0.40724830	     54.35267619	     -7.80066625	     -1.05979098	      0.89480312	    -51.26844230	     14.12821467	      0.00000000	      0.00000000	     55.97472742	     -5.52177010	      0.54310766	      0.86618666	    -49.62883990	     12.11395769	      0.00000000	      0.00000000	    -10.94671077	      0.32823398	     -0.06422218	    -20.32913657	      0.43655119	     -0.06823607	    -17.98435112	      0.79806809	     -0.06823607	    -12.51099574	      0.79806809	     -0.05619441	    -10.16511562	      0.66933473	     -0.05218052	     -6.25495053	      0.50843443	     -0.04816663	    -78.19126035	      3.71304840	     -0.35718449	      0.00000000	      0.00000000	     82.08810366	    -18.14939179	     12.77549300	     42.27353273	     70.47219045	     31.65748241	      2.28173017	     90.90823113	    -16.93077419	     35.56320177	     32.40402570	     58.01834544	     34.28288751	     -6.73794361
      2.47000000	      1.35512866	    -14.85458868	     95.01390129	      0.40265001	      0.81963447	      0.40737687	     54.36781012	     -7.79764793	     -1.04750316	      0.89489554	    -51.27373771	     14.13035532	      0.00000000	      0.00000000	     55.98780475	     -5.52351426	      0.53714212	      0.86623833	    -49.63180015	     12.11782313	      0.00000000	      0.00000000	    -10.94680051	      0.32984952	     -0.06490148	    -20.32930323	      0.43869986	     -0.06895783	    -17.98449856	      0.80199613	     -0.06895783	    -12.51109831	      0.80199613	     -0.05678880	    -10.16519896	      0.67262915	     -0.05273246	     -6.25500181	      0.51093691	     -0.04867611	    -78.19190138	      3.73132377	     -0.36096258	      0.00000000	      0.00000000	     81.87576945	    -18.17473015	     12.61789030	     42.69275616	     69.93616108	     31.65792422	      2.29124234	     90.75677686	    -16.92651534	     35.17108266	     32.50064764	     57.66093459	     34.29045116	     -6.73549059
      2.48000000	      1.36495753	    -14.95895768	     95.02161373	      0.40255614	      0.81924318	      0.40735857	     54.52943446	     -7.77487386	     -0.96363919	      0.89664998	    -51.37425955	     14.14044528	      0.00000000	      0.00000000	     56.15649178	     -5.51078174	      0.55120952	      0.86813092	    -49.74023763	     12.15676745	      0.00000000	      0.00000000	    -10.93147712	      0.33063336	     -0.06511014	    -20.30084617	      0.43974237	     -0.06917952	    -17.95932377	      0.80390196	     -0.06917952	    -12.49358520	      0.80390196	     -0.05697137	    -10.15096966	      0.67422755	     -0.05290199	     -6.24624603	      0.51215108	     -0.04883260	    -78.08244794	      3.74019072	     -0.36212304	      0.00000000	      0.00000000	     81.45818362	    -18.04453982	     11.39120249	     43.46979006	     73.78714402	     31.01279925	      3.66804362	     89.82349720	    -16.89720020	     31.81219922	     33.98541209	     62.00386143	     34.37966769	     -4.22373530
      2.49000000	      1.36375214	    -14.91499323	     95.03019979	      0.40249674	      0.81919074	      0.40731208	     54.48618013	     -7.77301543	     -0.92200880	      0.89704704	    -51.39700957	     14.13590214	      0.00000000	      0.00000000	     56.12026330	     -5.50814647	      0.55393351	      0.86855455	    -49.76451006	     12.15675963	      0.00000000	      0.00000000	    -10.92426522	      0.32969732	     -0.05626898	    -20.28745295	      0.43849743	     -0.05978579	    -17.94747534	      0.80162606	     -0.05978579	    -12.48534272	      0.80162606	     -0.04923536	    -10.14427269	      0.67231877	     -0.04571855	     -6.24212515	      0.51070114	     -0.04220174	    -78.03093407	      3.72960198	     -0.31295120	      0.00000000	      0.00000000	     81.24232390	    -18.11090227	     11.29399799	     43.64414378	     73.46871150	     31.01118384	      3.68001822	     89.62818354	    -16.85465781	     31.60048367	     34.16563608	     61.78410669	     34.39775641	     -4.21911342
      2.50000000	      1.38435524	    -14.90971248	     95.01229414	      0.40243578	      0.81916715	      0.40723437	     54.48872551	     -7.70145667	     -0.83094973	      0.89698279	    -51.39332799	     14.11066668	      0.00000000	      0.00000000	     56.15701339	     -5.53815328	      0.52838197	      0.87000389	    -49.84755098	     12.20461515	      0.00000000	      0.00000000	    -10.91924728	      0.33348371	     -0.05230214	    -20.27813413	      0.44353334	     -0.05557102	    -17.93923136	      0.81083230	     -0.05557102	    -12.47960772	      0.81083230	     -0.04576437	    -10.13961303	      0.68003999	     -0.04249549	     -6.23925790	      0.51656627	     -0.03922660	    -77.99509141	      3.77243446	     -0.29088881	      0.00000000	      0.00000000	     81.10898565	    -18.08435376	     11.10866392	     43.93796714	     74.53437905	     30.60724167	      3.92400147	     88.94332608	    -16.97826771	     30.05106062	     35.35087866	     64.19974727	     33.96162995	     -3.26844108
      2.51000000	      1.38926207	    -14.85657176	     95.01338478	      0.40245480	      0.81924801	      0.40709092	     54.43417466	     -7.69250402	     -0.83874043	      0.89738123	    -51.41615698	     14.10342284	      0.00000000	      0.00000000	     56.10396113	     -5.54961857	      0.53913694	      0.87020833	    -49.85926453	     12.19637578	      0.00000000	      0.00000000	    -10.90956950	      0.32993971	     -0.04276362	    -20.26016152	      0.43881981	     -0.04543635	    -17.92333173	      0.80221541	     -0.04543635	    -12.46854698	      0.80221541	     -0.03741817	    -10.13062624	      0.67281305	     -0.03474544	     -6.23372801	      0.51107661	     -0.03207271	    -77.92596399	      3.73234398	     -0.23783842	      0.00000000	      0.00000000	     80.87359949	    -18.12298179	     11.02939223	     44.07895209	     74.22556107	     30.60288081	      3.93904861	     88.75818707	    -16.91088562	     29.88202897	     35.49264074	     63.96900541	     33.97152665	     -3.26460797
      2.52000000	      1.37530015	    -14.77973039	     94.98553853	      0.40247885	      0.81940414	      0.40687582	     54.36165634	     -7.68246512	     -0.84111527	      0.89781593	    -51.44106379	     14.08902035	      0.00000000	      0.00000000	     56.01475955	     -5.56208571	      0.54005295	      0.87060306	    -49.88188078	     12.18451474	      0.00000000	      0.00000000	    -10.89864543	      0.32550148	     -0.02450350	    -20.23987443	      0.43291697	     -0.02603497	    -17.90538458	      0.79142430	     -0.02603497	    -12.45606186	      0.79142430	     -0.02144056	    -10.12048215	      0.66376262	     -0.01990909	     -6.22748600	      0.50420179	     -0.01837762	    -77.84793445	      3.68213784	     -0.13628111	      0.00000000	      0.00000000	     80.70892449	    -18.19661140	     11.00201937	     43.97048451	     74.30981782	     30.58656426	      3.96315784	     88.51057586	    -16.82168034	     29.87587001	     35.67202451	     64.00450511	     33.97330544	     -3.25243775
